<svg width="22" height="21" viewBox="0 0 22 21" fill="none" xmlns="http://www.w3.org/2000/svg">
<path d="M7.67887 4.53821C5.94749 4.53821 4.53711 5.94859 4.53711 7.67997C4.53711 9.41493 5.94749 10.8217 7.67887 10.8217C9.41024 10.8217 10.8206 9.41493 10.8206 7.67997C10.8206 5.94859 9.41024 4.53821 7.67887 4.53821ZM7.70333 7.31684C8.74356 7.5961 8.87618 8.23148 8.8832 8.49327C8.90065 8.98542 8.55858 9.45323 8.05585 9.63121C8.02795 9.64165 7.99647 9.64523 7.96858 9.65567V10.1235H7.27041V9.64526C6.92834 9.54786 6.57926 9.30007 6.28252 8.83191L6.86192 8.40958C7.25635 9.03825 7.67527 8.97514 7.83936 8.91577C8.03837 8.84596 8.19187 8.67141 8.18501 8.52134C8.18159 8.37469 8.00704 8.17226 7.5358 8.04667C6.49557 7.76397 6.36295 7.12859 6.35593 6.87055C6.33848 6.37449 6.68055 5.90668 7.18328 5.72871C7.21118 5.72169 7.24266 5.71468 7.27055 5.70782L7.2704 5.23642H7.96857V5.71812C8.30721 5.81942 8.65971 6.06019 8.95645 6.53146L8.37705 6.95036C7.98262 6.32201 7.56371 6.3884 7.39962 6.44417C7.20061 6.51399 7.04711 6.68853 7.05396 6.8425C7.05754 6.98884 7.23209 7.18785 7.70334 7.3169L7.70333 7.31684Z" fill="#272525"/>
<path d="M12.3679 12.368C12.7727 11.9666 13.1218 11.5127 13.4081 11.0206L14.4588 11.3033L14.5844 11.0454C15.0174 10.1513 15.2723 9.20179 15.3421 8.22092L15.3595 7.93121L14.3053 7.64852C14.3018 6.49997 14.0015 5.38291 13.436 4.39159L14.204 3.6236L14.0434 3.38626C13.7782 2.98483 13.464 2.60423 13.1079 2.24832C12.7554 1.89581 12.3714 1.58163 11.9734 1.3125L11.7361 1.15541L10.9681 1.92307C9.98018 1.358 8.85952 1.0577 7.71113 1.05427L7.42828 0L7.142 0.0208828C6.16114 0.083686 5.208 0.338174 4.31442 0.771114L4.05604 0.896721L4.33873 1.9474C3.84658 2.23711 3.39277 2.58621 2.98775 2.99123C2.5829 3.39237 2.23381 3.8465 1.94752 4.33861L0.897 4.05638L0.771394 4.31477C0.33845 5.20834 0.083678 6.16148 0.0208827 7.14235L0 7.42863L1.05427 7.71133C1.0577 8.85987 1.35442 9.97694 1.92355 10.9683L1.15557 11.7362L1.31266 11.9736C1.5779 12.3719 1.89565 12.7556 2.24816 13.112C2.60426 13.4645 2.98467 13.7784 3.3861 14.0441L3.62344 14.2046L4.39143 13.4366C5.37931 14.0022 6.49997 14.302 7.64836 14.3059L7.93106 15.3602L8.22076 15.3422C9.20163 15.2724 10.1548 15.0176 11.0449 14.5847L11.3033 14.4591L11.0206 13.4084C11.5126 13.1221 11.9664 12.773 12.3679 12.368L12.3679 12.368ZM7.66221 12.2005C5.15583 12.2005 3.12412 10.1688 3.12412 7.66238C3.12412 5.15599 5.15583 3.12428 7.66221 3.12428C10.1686 3.12428 12.2003 5.15599 12.2003 7.66238C12.2003 10.1688 10.1686 12.2005 7.66221 12.2005Z" fill="#272525"/>
<path d="M20.8847 16.0403C20.8847 15.7191 20.8464 15.3979 20.773 15.0874L21.349 14.7523L21.2547 14.4804C21.0557 13.901 20.7485 13.37 20.3471 12.9056L20.1587 12.6891L19.5757 13.0242C19.1078 12.5805 18.5459 12.2562 17.9316 12.0712V11.4079L17.6489 11.3521C17.0659 11.2334 16.4096 11.2334 15.8266 11.3521L15.5439 11.4079V12.0709C14.9296 12.2558 14.3675 12.5804 13.8998 13.0238L13.3204 12.6888L13.1318 12.9049C12.727 13.3658 12.4196 13.8967 12.2208 14.4797L12.123 14.7517L12.7024 15.0867C12.6292 15.3978 12.5907 15.719 12.5907 16.0397C12.5907 16.3606 12.629 16.6821 12.7024 16.9927L12.123 17.3277L12.2208 17.5997C12.4198 18.1827 12.727 18.7133 13.1318 19.1745L13.3204 19.3906L13.8998 19.0556C14.3676 19.4992 14.9296 19.8235 15.5439 20.0085V20.6715L15.8266 20.7273C16.1163 20.7879 16.4235 20.8194 16.7376 20.8194C17.0518 20.8194 17.359 20.7876 17.6487 20.7282L17.9314 20.6724L17.9315 20.0095C18.5459 19.8245 19.108 19.4999 19.5757 19.0565L20.1587 19.3916L20.3472 19.1754C20.7487 18.7111 21.0559 18.1802 21.2549 17.6006L21.3491 17.3287L20.7731 16.9936C20.8464 16.6827 20.8847 16.3615 20.8847 16.0403L20.8847 16.0403ZM16.7376 18.4839C15.3902 18.4839 14.294 17.3877 14.294 16.0403C14.294 14.6929 15.3902 13.5967 16.7376 13.5967C18.085 13.5967 19.1812 14.6929 19.1812 16.0403C19.1812 17.3877 18.085 18.4839 16.7376 18.4839Z" fill="#272525"/>
<path d="M18.4832 8.7096V9.05869H19.1813V8.7096C19.1813 7.74621 19.9634 6.96418 20.9268 6.96418H21.2758V6.26601H20.9268C19.9634 6.26601 19.1813 5.48399 19.1813 4.52059V4.17151H18.4832V4.52059C18.4832 5.48399 17.7011 6.26601 16.7378 6.26601H16.3887V6.96418H16.7378C17.7011 6.96418 18.4832 7.74621 18.4832 8.7096Z" fill="#272525"/>
</svg>
